<svg xmlns="http://www.w3.org/2000/svg" width="512" height="512" viewBox="0 0 512 512">
<g>
<path d="M 214.38 405.61 C212.04,406.59 208.35,407.03 203.92,406.84 C198.03,406.60 196.47,406.12 192.79,403.39 C185.04,397.66 109.51,320.84 105.02,314.12 C98.89,304.96 92.55,290.90 89.86,280.50 C86.60,267.93 86.56,244.43 89.77,232.50 C93.56,218.44 99.52,205.68 106.84,196.00 C113.00,187.85 289.49,11.18 294.11,8.53 C300.00,5.17 311.21,4.95 317.69,8.09 C329.29,13.71 334.00,28.91 327.96,41.25 C326.54,44.15 310.69,60.62 278.17,93.00 C189.18,181.59 146.46,225.22 143.66,230.37 C134.90,246.47 134.76,265.34 143.28,281.40 C145.87,286.28 154.23,295.26 186.00,327.25 C229.27,370.83 229.96,371.71 229.99,382.55 C230.01,393.03 224.30,401.47 214.38,405.61 Z" fill="rgb(7,7,5)"/>
<path d="M 426.06 278.97 C422.14,280.97 420.60,281.00 328.79,280.98 C247.57,280.96 235.10,280.76 232.44,279.44 C219.19,272.90 214.03,258.64 220.29,245.85 C223.23,239.82 229.34,234.52 235.13,232.96 C237.54,232.32 271.65,232.06 331.18,232.23 L 423.50 232.50 L 427.58 235.16 C436.05,240.67 440.01,247.56 439.98,256.72 C439.94,266.28 434.79,274.52 426.06,278.97 Z" fill="rgb(173,172,170)"/>
<path d="M 214.38 405.61 C224.30,401.47 230.01,393.03 229.99,382.55 C229.97,372.94 229.42,371.16 199.12,340.49 C222.86,364.29 226.93,367.77 231.98,370.17 C244.08,375.92 257.12,377.45 269.25,374.55 C280.46,371.88 285.53,367.97 311.93,341.68 C338.70,315.04 341.40,313.05 351.21,312.80 C357.46,312.65 364.22,315.32 368.74,319.75 C375.99,326.84 378.03,337.94 373.76,347.13 C370.14,354.94 323.89,401.27 311.91,409.10 C299.36,417.29 289.35,421.26 273.00,424.51 C247.78,429.52 219.57,422.56 195.35,405.34 C195.00,405.09 194.53,404.71 193.95,404.22 C196.87,406.22 198.69,406.63 203.92,406.84 C208.35,407.03 212.04,406.59 214.38,405.61 ZM 327.21 42.39 C324.51,46.16 315.78,55.58 303.71,67.71 C289.51,81.97 282.12,90.07 283.05,90.35 C297.63,94.75 306.39,99.22 318.52,108.50 C328.50,116.12 371.13,159.57 373.46,164.50 C377.86,173.79 376.19,184.45 369.11,192.31 C364.56,197.36 358.92,199.95 352.43,199.98 C341.78,200.02 340.49,199.10 312.77,171.47 C288.05,146.84 286.95,145.88 278.37,141.77 C269.95,137.73 268.98,137.50 258.88,137.15 C250.95,136.88 246.76,137.22 242.39,138.49 C229.53,142.23 227.41,144.00 185.71,185.92 C177.89,193.77 171.16,200.61 165.51,206.42 C186.80,184.37 223.87,147.05 278.17,93.00 C307.72,63.58 323.50,47.29 327.21,42.39 ZM 142.81 354.17 C124.22,335.28 107.37,317.63 105.02,314.12 C107.09,317.21 124.19,335.15 142.81,354.17 ZM 144.34 229.35 C144.04,229.77 143.81,230.11 143.67,230.37 C142.07,233.29 140.76,236.31 139.74,239.38 C140.76,236.31 142.07,233.29 143.66,230.37 C143.79,230.12 144.02,229.78 144.34,229.35 Z" fill="rgb(246,160,30)"/>
<path d="M 0.00 256.00 L 0.00 0.00 L 256.00 0.00 L 512.00 0.00 L 512.00 256.00 L 512.00 512.00 L 256.00 512.00 L 0.00 512.00 L 0.00 256.00 ZM 273.00 424.51 C289.35,421.26 299.36,417.29 311.91,409.10 C323.89,401.27 370.14,354.94 373.76,347.13 C378.03,337.94 375.99,326.84 368.74,319.75 C364.22,315.32 357.46,312.65 351.21,312.80 C341.40,313.05 338.70,315.04 311.93,341.68 C285.53,367.97 280.46,371.88 269.25,374.55 C257.12,377.45 244.08,375.92 231.98,370.17 C226.11,367.38 221.56,363.14 185.98,327.27 C154.26,295.29 145.87,286.28 143.28,281.40 C134.76,265.34 134.90,246.41 143.67,230.37 C145.44,227.13 159.49,212.27 185.71,185.92 C227.41,144.00 229.53,142.23 242.39,138.49 C246.76,137.22 250.95,136.88 258.88,137.15 C268.98,137.50 269.95,137.73 278.37,141.77 C286.95,145.88 288.05,146.84 312.77,171.47 C340.49,199.10 341.78,200.02 352.43,199.98 C358.92,199.95 364.56,197.36 369.11,192.31 C376.19,184.45 377.86,173.79 373.46,164.50 C371.13,159.57 328.50,116.12 318.52,108.50 C306.39,99.22 297.63,94.75 283.05,90.35 C282.12,90.07 289.51,81.97 303.71,67.71 C317.28,54.07 326.63,43.86 327.92,41.25 C334.03,28.99 329.31,13.72 317.69,8.09 C311.21,4.95 300.00,5.17 294.11,8.53 C289.49,11.18 113.00,187.85 106.84,196.00 C99.52,205.68 93.56,218.44 89.77,232.50 C86.56,244.43 86.60,267.93 89.86,280.50 C92.55,290.90 98.89,304.96 105.02,314.12 C110.23,321.91 186.89,399.32 195.35,405.34 C219.57,422.56 247.78,429.52 273.00,424.51 ZM 426.06 278.97 C434.79,274.52 439.94,266.28 439.98,256.72 C440.01,247.56 436.05,240.67 427.58,235.16 L 423.50 232.50 L 331.18 232.23 C271.65,232.06 237.54,232.32 235.13,232.96 C229.34,234.52 223.23,239.82 220.29,245.85 C214.03,258.64 219.19,272.90 232.44,279.44 C235.10,280.76 247.57,280.96 328.79,280.98 C420.60,281.00 422.14,280.97 426.06,278.97 Z" fill="rgb(254,254,254)"/>
</g>
</svg>